# xmcd
#
# Track frame offsets:
#	150
#	18057
#	29555
#	37967
#	49737
#	59810
#	71337
#	81615
#	90987
#	104917
#	117500
#	127395
#
# Disc length: 1872 seconds
#
# Revision: 0
# Processed by: cddbd v1.5.2PL0 Copyright (c) Steve Scherf et al.
# Submitted via: EasyCDDAExtractor 10.2.0.1
#
DISCID=af074e0c
DTITLE=Lawrence Bishop - Traveling Preacher Man
DYEAR=2000
DGENRE=Gospel
TTITLE0=Traveling Preacher Man
TTITLE1=The Potter And The Clay
TTITLE2=High On The Mountain
TTITLE3=Steer Me On The Righeous Pathway
TTITLE4=I Called His name
TTITLE5=Oasis Of Love
TTITLE6=I Don't Believe You Met My Jesus
TTITLE7=Peace And Freedom
TTITLE8=Is Not This The Land Of Beulah
TTITLE9=I've Been Away Too Long
TTITLE10=Let Me Rest
TTITLE11=I Will Arise
EXTD=
EXTT0=
EXTT1=
EXTT2=
EXTT3=
EXTT4=
EXTT5=
EXTT6=
EXTT7=
EXTT8=
EXTT9=
EXTT10=
EXTT11=
PLAYORDER=
